<?xml version="1.0" standalone="no"?>
<!DOCTYPE svg PUBLIC "-//W3C//DTD SVG 20010904//EN"
 "http://www.w3.org/TR/2001/REC-SVG-20010904/DTD/svg10.dtd">
<svg version="1.0" xmlns="http://www.w3.org/2000/svg"
 width="429.000000pt" height="284.000000pt" viewBox="0 0 429.000000 284.000000"
 preserveAspectRatio="xMidYMid meet">

<g transform="translate(0.000000,284.000000) scale(0.100000,-0.100000)"
fill="#000000" stroke="none">
<path d="M40 2806 c0 -20 94 -715 115 -850 9 -54 14 -100 12 -103 -4 -3 -88
103 -139 177 -28 39 -13 1 57 -146 78 -164 134 -251 221 -344 263 -280 694
-432 1231 -433 101 0 185 2 188 5 17 17 -169 299 -268 404 l-69 74 -34 -30
c-111 -97 -299 -129 -419 -71 -66 32 -162 131 -203 209 -55 103 -54 252 2 365
12 26 20 47 17 47 -3 0 -50 24 -104 54 l-98 54 8 -31 c10 -39 9 -144 -2 -259
-10 -113 4 -186 60 -306 50 -104 38 -111 -35 -20 -95 120 -139 250 -146 438
-6 161 -39 265 -116 363 -16 20 -27 37 -24 37 3 0 45 -18 94 -39 695 -306
1238 -792 1492 -1334 25 -53 48 -96 52 -97 4 0 5 6 3 13 -2 6 -34 233 -70 504
l-66 492 125 256 c68 140 122 255 120 255 -3 0 -107 -101 -232 -224 l-227
-224 5 -101 c3 -56 3 -101 0 -101 -3 0 -18 21 -35 48 -217 344 -736 683 -1345
880 -177 57 -170 56 -170 38z"/>
<path d="M4144 2780 c-382 -120 -788 -321 -1034 -513 -158 -124 -279 -249
-365 -379 -21 -32 -40 -58 -43 -58 -2 0 -3 45 0 99 l5 99 -234 234 -234 233
128 -263 127 -262 -67 -498 c-37 -273 -67 -501 -67 -507 1 -5 22 35 49 90 260
545 817 1042 1494 1336 50 21 92 39 95 39 2 0 -12 -21 -31 -47 -76 -105 -107
-201 -107 -330 0 -202 -57 -362 -178 -495 -50 -55 -56 -47 -18 25 19 34 44 95
56 135 20 66 22 86 15 185 -10 163 -11 227 -1 269 l8 38 -98 -56 c-55 -31
-100 -57 -102 -58 -1 -2 10 -30 25 -62 26 -54 28 -69 28 -174 0 -113 -1 -116
-34 -175 -53 -92 -153 -187 -226 -214 -118 -45 -274 -14 -392 76 l-42 32 -68
-73 c-37 -40 -93 -109 -124 -152 -59 -83 -152 -244 -145 -251 11 -11 393 -2
501 12 288 38 545 127 738 256 105 71 256 230 319 339 48 81 158 310 158 327
0 4 -22 -25 -49 -63 -27 -38 -63 -85 -81 -104 -29 -33 -31 -33 -26 -10 5 25
79 550 114 813 12 92 15 137 8 136 -6 0 -52 -13 -102 -29z"/>
<path d="M2160 785 c0 -7 11 -20 24 -28 13 -9 29 -32 36 -52 19 -58 40 -45 40
26 0 57 -1 61 -20 56 -12 -3 -34 -2 -50 3 -22 6 -30 5 -30 -5z"/>
<path d="M990 775 c0 -8 4 -15 8 -15 4 0 25 -65 47 -146 l38 -145 31 3 c27 3
31 8 44 58 12 50 12 61 -9 137 -16 62 -19 86 -10 96 17 22 3 27 -76 27 -58 0
-73 -3 -73 -15z"/>
<path d="M1171 732 c-12 -54 -11 -66 15 -161 l27 -102 30 3 c28 3 32 8 44 54
11 46 10 58 -16 155 -27 101 -28 104 -58 107 -29 3 -30 1 -42 -56z"/>
<path d="M1280 781 c0 -5 6 -14 14 -20 11 -9 12 -20 5 -44 -12 -42 -12 -87 1
-87 5 0 17 26 26 58 8 31 24 64 34 73 11 9 16 19 13 23 -10 9 -93 7 -93 -3z"/>
<path d="M1494 743 c3 -27 3 -42 0 -35 -12 27 -22 8 -49 -93 -19 -74 -33 -109
-47 -116 -29 -15 -12 -29 38 -29 42 0 56 11 33 26 -14 8 -7 66 17 144 l17 55
13 -50 c18 -66 18 -65 -10 -65 -13 0 -26 -7 -30 -15 -4 -11 2 -15 28 -15 26 0
35 -5 40 -22 3 -13 1 -27 -4 -32 -6 -6 -10 -14 -10 -18 0 -12 148 -10 155 2 3
6 2 10 -4 10 -12 0 -22 33 -57 183 l-27 117 -55 0 -54 0 6 -47z"/>
<path d="M1700 735 c0 -43 3 -55 15 -55 9 0 18 8 21 18 3 9 12 30 20 45 20 41
18 47 -21 47 l-35 0 0 -55z"/>
<path d="M1780 646 c0 -121 -2 -145 -16 -150 -35 -13 2 -26 77 -26 79 0 92 6
64 30 -12 10 -15 40 -15 151 l0 139 -55 0 -55 0 0 -144z"/>
<path d="M1900 776 c0 -7 6 -19 14 -25 8 -7 18 -26 21 -42 4 -16 13 -29 21
-29 10 0 14 14 14 55 l0 55 -35 0 c-23 0 -35 -5 -35 -14z"/>
<path d="M2083 775 c-116 -50 -106 -271 15 -305 45 -12 63 1 39 28 -24 26 -25
243 -2 262 36 30 4 39 -52 15z"/>
<path d="M2310 781 c0 -6 5 -13 10 -16 6 -4 10 -60 10 -136 0 -79 -4 -129 -10
-129 -5 0 -10 -7 -10 -15 0 -12 25 -14 155 -14 85 0 157 3 159 8 3 5 -1 14 -9
21 -22 18 -22 258 0 266 8 4 12 10 9 15 -7 12 -314 12 -314 0z m178 -74 c3
-52 1 -57 -18 -57 -11 0 -20 -4 -20 -10 0 -5 9 -10 20 -10 18 0 20 -7 20 -64
0 -64 -8 -79 -37 -68 -10 3 -13 39 -13 131 0 70 3 131 7 135 4 4 14 5 23 4 11
-2 16 -18 18 -61z"/>
<path d="M2670 781 c0 -6 5 -13 10 -16 6 -4 10 -60 10 -135 0 -75 -4 -131 -10
-135 -26 -16 -4 -25 60 -25 l70 0 0 160 0 160 -70 0 c-38 0 -70 -4 -70 -9z"/>
<path d="M2820 776 c0 -7 9 -16 20 -19 11 -3 28 -19 37 -36 27 -47 43 -40 43
19 l0 50 -50 0 c-36 0 -50 -4 -50 -14z"/>
<path d="M2960 781 c0 -6 5 -13 10 -16 6 -4 10 -60 10 -135 0 -75 -4 -131 -10
-135 -27 -16 -3 -25 69 -25 75 0 112 13 77 26 -14 5 -16 29 -16 150 l0 144
-70 0 c-38 0 -70 -4 -70 -9z"/>
<path d="M3110 776 c0 -9 5 -16 10 -16 14 0 12 -96 -2 -121 -10 -17 -10 -23 0
-26 7 -3 12 -24 12 -54 0 -36 5 -54 20 -69 27 -27 83 -27 110 0 25 25 25 40 1
40 -15 0 -20 8 -23 36 -2 24 -10 41 -23 48 -11 6 -22 12 -24 13 -2 2 8 12 22
24 21 16 27 29 27 58 0 49 -25 72 -85 78 -37 5 -45 3 -45 -11z"/>
<path d="M2836 665 c-18 -33 -18 -36 -3 -53 10 -10 17 -24 17 -30 0 -7 7 -12
15 -12 12 0 15 14 15 65 0 75 -15 85 -44 30z"/>
<path d="M2877 535 c-15 -19 -34 -35 -42 -35 -8 0 -15 -7 -15 -15 0 -11 12
-15 50 -15 l50 0 0 50 c0 28 -3 50 -7 50 -5 0 -21 -16 -36 -35z"/>
<path d="M2222 535 c-7 -14 -23 -30 -37 -35 -14 -5 -25 -17 -25 -26 0 -11 5
-14 16 -10 9 3 19 6 23 6 17 0 61 50 61 70 0 28 -24 25 -38 -5z"/>
</g>
</svg>
